<?xml version="1.0" encoding="utf-8"?>
<!-- Generator: Adobe Illustrator 22.1.0, SVG Export Plug-In . SVG Version: 6.00 Build 0)  -->
<svg version="1.1" id="Layer_1" xmlns="http://www.w3.org/2000/svg" xmlns:xlink="http://www.w3.org/1999/xlink" x="0px" y="0px"
	 viewBox="0 0 3000 1500" style="enable-background:new 0 0 3000 1500;" xml:space="preserve">
<style type="text/css">
	.st0{fill:#3626A7;}
	.st1{enable-background:new    ;}
	.st2{fill:#F8DEDD;}
</style>
<g id="df-footer">
	<g id="Group" transform="translate(1.000000, 1.000000)">
		<rect id="Rectangle-10" y="0" class="st0" width="3000" height="1500"/>
		<g class="st1">
			<path class="st2" d="M1577.3,260.6c176.6,176.6,178.4,459.2,5.3,632.4c-173.1,173.1-455.7,171.3-632.4-5.3L730.4,667.8
				l627.1-627.1L1577.3,260.6z M1440.4,750.8c100.7-100.7,113-256.1,7.9-361.2l-78.6-78.6l-369.2,369.2l78.6,78.6
				C1184.3,863.8,1339.8,851.5,1440.4,750.8z"/>
			<path class="st2" d="M2356.3,1039.6l-139.5,139.5l-229.6-229.6l-106,106l176.6,176.6l-136,136l-176.6-176.6L1499.6,1437
				l-141.3-141.3l627.1-627.1L2356.3,1039.6z"/>
		</g>
	</g>
</g>
</svg>
