<?xml version="1.0" encoding="UTF-8"?>
<svg width="91px" height="73px" viewBox="0 0 91 73" version="1.1" xmlns="http://www.w3.org/2000/svg" xmlns:xlink="http://www.w3.org/1999/xlink">
    <!-- Generator: Sketch 51.1 (57501) - http://www.bohemiancoding.com/sketch -->
    <title>Group</title>
    <desc>Created with Sketch.</desc>
    <defs></defs>
    <g id="Page-1" stroke="none" stroke-width="1" fill="none" fill-rule="evenodd">
        <g id="Black-Mono_vertical" transform="translate(-12.000000, -8.000000)" fill="#1A1919">
            <g id="Group" transform="translate(11.000000, 8.000000)">
                <text id="Government" font-family="LucidaGrande, Lucida Grande" font-size="10.4598" font-weight="normal" letter-spacing="0.055">
                    <tspan x="16.7159" y="60.929434">Gove</tspan>
                    <tspan x="42.1609743" y="60.929434" letter-spacing="0.2432764">r</tspan>
                    <tspan x="46.6841884" y="60.929434">nment</tspan>
                </text>
                <text id="of-South-Australia" font-family="LucidaGrande, Lucida Grande" font-size="10.4598" font-weight="normal" letter-spacing="0.055">
                    <tspan x="0.5659688" y="71.389234">of South Australia</tspan>
                </text>
                <path d="M61.697,19.437 C63.968,23.817 63.096,29.923 59.83,33.563 C56.43,37.421 51.561,38.938 46.513,37.732 C42.01,36.837 37.887,32.427 36.993,27.993 C35.733,22.58 37.918,17.415 42.375,14.273 C46.116,11.543 52.16,11.294 56.158,13.65 C58.445,14.848 60.607,17.143 61.697,19.437 Z M62.039,19.655 C64.263,24.307 63.175,30.444 59.612,34.123 C56.189,37.732 51.273,39.155 46.358,37.919 C41.558,36.876 37.28,32.116 36.619,27.278 C35.725,22.012 37.911,17.259 42.126,14.179 C45.984,11.262 52.394,11.06 56.5,13.588 C58.834,14.887 60.996,17.275 62.039,19.655 Z" id="Fill-29"></path>
                <path d="M35.437,30.078 C35.771,30.677 36.168,31.253 36.433,31.883 C36.199,31.984 36.168,31.626 35.966,31.572 L35.655,31.634 L32.761,33.252 C32.419,33.501 32.287,33.835 32.263,34.216 C32.294,34.808 32.613,35.422 33.197,35.648 C34.488,35.756 35.468,34.73 36.588,34.216 C36.853,34.045 37.031,33.773 37.055,33.47 L36.993,33.034 L37.117,33.034 L37.988,34.621 L37.926,34.683 C37.646,34.395 37.28,34.216 36.868,34.341 L34.037,35.834 C33.516,35.927 32.909,35.865 32.543,35.399 C32.03,34.769 31.664,34.029 31.828,33.159 C31.898,32.785 32.263,32.505 32.574,32.318 L35.312,30.794 C35.6,30.592 35.289,30.296 35.343,30.078 L35.437,30.078" id="Fill-30"></path>
                <path d="M63.906,30.545 C63.921,30.825 63.696,31.23 64.123,31.323 L67.826,33.003 C68.121,33.003 68.121,32.505 68.386,32.63 C68.098,33.252 67.849,33.921 67.515,34.496 L67.421,34.496 C67.421,34.278 67.561,34.045 67.421,33.843 L63.563,32.038 C63.268,31.992 63.213,32.404 62.972,32.443 C63.19,31.782 63.493,31.16 63.812,30.545 L63.906,30.545" id="Fill-31"></path>
                <path d="M60.763,35.368 C60.81,35.601 60.421,35.764 60.607,36.052 L63.657,38.883 C64.045,39.062 64.294,38.588 64.497,38.354 C64.979,37.701 64.808,36.62 64.403,35.99 C64.427,35.935 64.489,35.966 64.528,35.959 L65.617,37.452 C64.73,38.409 63.859,39.342 62.91,40.221 C62.879,40.229 62.863,40.205 62.848,40.19 C62.879,39.972 63.128,39.801 63.034,39.568 L59.954,36.674 C59.682,36.48 59.433,37.102 59.301,36.768 L60.67,35.368 L60.763,35.368" id="Fill-32"></path>
                <path d="M40.695,36.954 C40.765,37.125 40.835,37.296 41.006,37.421 L41.286,37.359 L41.286,37.545 C40.967,37.981 40.679,38.432 40.322,38.852 L40.228,38.852 C40.407,38.183 40.858,37.242 40.197,36.612 C40.011,36.379 39.746,36.324 39.482,36.27 C39.163,36.293 38.859,36.534 38.735,36.83 C38.579,38.137 40.407,39.241 39.171,40.501 C38.844,40.812 38.447,40.96 37.988,40.937 C37.179,40.875 36.534,40.182 36.153,39.506 C36.028,39.35 35.88,39.412 35.717,39.443 L35.717,39.288 C36.16,38.782 36.627,38.253 37.055,37.763 L37.148,37.763 C36.837,38.455 36.292,39.28 36.775,40.066 C37.031,40.346 37.335,40.649 37.739,40.657 C38.128,40.68 38.455,40.415 38.642,40.097 C38.999,38.704 36.697,37.39 38.455,36.207 C39.256,35.764 40.259,36.145 40.695,36.954" id="Fill-33"></path>
                <path d="M43.526,38.666 C44.654,39.054 45.751,39.529 46.949,39.754 C46.902,40.361 46.809,40.952 46.669,41.528 C46.513,41.357 46.591,41.03 46.482,40.812 C46.35,40.291 45.953,39.692 45.393,39.537 L43.9,43.675 C43.946,43.978 44.32,43.963 44.46,44.173 L44.398,44.235 C43.674,43.978 42.927,43.76 42.219,43.457 L42.219,43.395 C42.437,43.348 42.694,43.488 42.935,43.395 C43.55,42.065 43.97,40.657 44.491,39.288 C44.514,39.187 44.398,39.163 44.335,39.132 C43.495,39.047 42.849,39.436 42.282,40.003 C42.142,39.98 42.282,39.856 42.282,39.786 L43.153,38.416 L43.526,38.666" id="Fill-34"></path>
                <path d="M33.508,26.469 C33.041,26.842 32.466,27.107 31.921,27.371 L31.797,26.034 L33.508,26.469 Z M29.93,25.1 C31.073,25.839 32.481,25.932 33.757,26.345 C34.146,25.886 34.519,26.593 34.97,26.531 L35.032,26.593 C33.516,27.441 31.983,28.375 30.459,29.269 C30.194,29.378 30.373,29.759 30.148,29.798 C30.039,29.16 29.976,28.46 29.93,27.838 C29.922,27.784 30.015,27.815 30.054,27.807 C30.148,27.962 30.093,28.274 30.365,28.274 C30.832,28.064 31.322,27.846 31.703,27.496 L31.548,25.971 C31.12,25.839 30.599,25.559 30.148,25.847 C29.875,25.971 30.047,26.36 29.774,26.407 C29.696,25.831 29.588,25.232 29.588,24.665 C29.813,24.68 29.782,24.968 29.93,25.1 Z" id="Fill-35"></path>
                <path d="M51.273,40.314 C51.701,40.758 51.655,41.473 51.429,41.995 C51.118,42.407 50.62,42.36 50.153,42.399 C50.084,41.66 50.021,40.882 50.091,40.128 C50.504,40.143 50.955,40.066 51.273,40.314 Z M52.331,40.439 C52.557,40.727 52.681,41.085 52.58,41.465 C52.37,42.065 51.733,42.298 51.211,42.461 C51.608,42.601 52.121,42.874 52.3,43.332 C52.635,43.823 52.814,44.725 53.607,44.67 L53.607,44.764 C53.14,44.787 52.689,44.849 52.207,44.826 C51.686,44.103 51.445,43.177 50.651,42.648 C50.511,42.594 50.34,42.624 50.185,42.617 L50.122,42.71 L50.216,44.546 C50.356,44.756 50.597,44.717 50.807,44.764 C50.853,44.888 50.714,44.935 50.62,44.919 L48.753,44.982 L48.691,44.919 C48.824,44.701 49.189,44.857 49.282,44.546 L49.127,40.408 C49.026,40.104 48.668,40.229 48.505,40.066 L48.598,40.003 C49.842,40.058 51.359,39.544 52.331,40.439 Z" id="Fill-36"></path>
                <path d="M57.776,41.092 L56.563,41.683 C56.415,41.131 56.462,40.501 56.407,39.91 C56.874,40.268 57.356,40.688 57.776,41.092 Z M60.607,41.932 L60.607,41.995 C60.008,42.275 59.418,42.578 58.803,42.804 C58.748,42.586 59.277,42.516 59.083,42.212 L57.994,41.248 C57.481,41.458 56.944,41.683 56.5,41.995 C56.586,42.485 56.516,43.122 57.092,43.332 L57.527,43.332 L57.527,43.426 C56.991,43.652 56.446,43.978 55.909,44.11 C56.353,43.76 56.407,43.169 56.407,42.648 L56.22,39.786 C55.622,39.599 56.197,38.977 55.972,38.541 L56.034,38.479 L60.141,41.932 L60.607,41.932 Z" id="Fill-37"></path>
                <path d="M67.639,28.056 C67.071,27.892 66.581,27.535 66.052,27.278 C66.573,27.045 67.173,26.858 67.763,26.718 L67.639,28.056 Z M69.973,24.758 C69.965,25.38 69.871,26.041 69.817,26.687 L69.724,26.718 C69.607,26.562 69.716,26.306 69.506,26.189 C68.961,26.251 68.425,26.407 67.981,26.656 L67.826,28.18 C68.223,28.421 68.627,28.733 69.133,28.616 C69.42,28.554 69.405,28.173 69.661,28.118 C69.599,28.717 69.63,29.347 69.444,29.892 C69.35,29.495 69.062,29.09 68.666,28.865 L65.772,27.34 C65.298,27.768 65.041,26.92 64.59,26.905 L64.59,26.811 C66.301,26.298 68.005,25.746 69.693,25.162 C69.879,25.069 69.763,24.789 69.973,24.758 Z" id="Fill-38"></path>
                <path d="M52.145,5.001 C52.075,5.195 51.787,5.141 51.647,5.312 C51.235,5.693 51.359,6.292 51.336,6.837 C51.243,7.863 51.81,9.559 50.433,10.01 C49.671,10.243 48.745,10.15 48.1,9.73 C47.719,9.426 47.594,9.03 47.571,8.579 L47.478,5.405 C47.361,5.117 46.972,5.335 46.886,5.094 C47.556,4.977 48.333,5.055 49.002,5.032 C49.033,5.304 48.676,5.149 48.535,5.281 L48.411,5.468 L48.505,8.952 C48.559,9.287 48.847,9.613 49.158,9.761 C49.617,9.924 50.231,10.002 50.651,9.699 C51.04,9.395 51.203,8.952 51.18,8.455 C51.04,7.467 51.367,6.284 50.9,5.436 C50.737,5.203 50.418,5.195 50.278,5.032 L50.496,4.97 C51.048,5.071 51.592,4.9 52.145,5.001" id="Fill-39"></path>
                <path d="M58.958,7.054 L59.176,7.054 C59.099,7.661 58.974,8.252 58.803,8.828 C58.725,8.563 58.686,8.221 58.616,7.925 C58.461,7.474 58.142,6.953 57.652,6.774 C57.029,8.12 56.516,9.504 55.972,10.881 C56.034,11.169 56.345,11.223 56.532,11.41 C56.5,11.511 56.329,11.48 56.252,11.441 C55.622,11.138 54.945,10.928 54.323,10.601 C54.424,10.461 54.696,10.601 54.883,10.601 C55.194,10.64 55.209,10.282 55.318,10.104 C55.746,8.859 56.322,7.677 56.749,6.432 C55.909,6.09 55.124,6.627 54.478,7.117 C54.735,6.58 55.054,6.074 55.443,5.592 L55.847,5.872 L58.958,7.054" id="Fill-40"></path>
                <path d="M63.688,10.445 C63.68,10.485 63.711,10.547 63.657,10.57 C63.415,10.562 63.283,10.205 63.003,10.383 L61.728,11.69 C62.148,12.258 62.692,12.631 63.159,13.152 L63.252,13.152 C63.602,12.522 65.064,12.04 64.31,11.255 C64.38,11.107 64.481,11.262 64.559,11.286 L65.866,12.624 L65.803,12.717 C65.57,12.701 65.422,12.359 65.15,12.53 L62.163,15.58 C62.101,15.821 62.389,15.922 62.381,16.139 L62.225,16.139 C61.766,15.665 61.245,15.214 60.856,14.708 C61.105,14.576 61.409,15.175 61.665,14.739 L63.034,13.37 C62.622,12.841 62.078,12.375 61.603,11.877 L61.51,11.877 L60.016,13.402 C59.853,13.65 60.444,13.899 60.11,14.024 C59.658,13.572 59.161,13.075 58.71,12.624 L58.71,12.53 C58.951,12.499 59.184,12.95 59.456,12.655 L62.381,9.699 C62.537,9.403 61.945,9.178 62.287,9.046 L63.688,10.445" id="Fill-41"></path>
                <path d="M37.273,11.41 L37.273,11.535 C36.611,11.286 35.74,10.803 35.063,11.348 C34.776,11.566 34.651,11.846 34.597,12.157 C34.628,12.452 34.846,12.694 35.095,12.873 C36.347,13.09 37.343,11.675 38.61,12.406 C39.007,12.686 39.178,13.122 39.264,13.557 C39.326,14.304 38.859,14.879 38.268,15.299 C38.027,15.424 37.747,15.533 37.584,15.766 C37.56,15.867 37.623,15.929 37.646,16.015 L37.584,16.077 C37.016,15.642 36.471,15.097 35.966,14.584 L36.028,14.521 C36.658,14.903 37.343,15.338 38.144,15.113 C38.564,14.91 38.945,14.475 38.953,13.992 C38.929,13.643 38.704,13.324 38.393,13.152 C37.039,12.834 35.196,15.089 34.379,12.904 C34.239,12.273 34.426,11.628 34.939,11.192 C35.227,10.866 35.981,10.92 35.841,10.321 L35.935,10.321 L37.273,11.41" id="Fill-42"></path>
                <path d="M43.931,8.983 C44.156,9.567 44.203,10.469 43.775,10.975 C43.449,11.325 43.044,11.48 42.593,11.535 C41.278,11.457 40.672,9.994 40.353,8.952 C40.228,8.369 40.259,7.7 40.695,7.272 C41.115,6.883 41.722,6.681 42.282,6.899 C43.13,7.249 43.627,8.19 43.931,8.983 Z M44.615,7.957 C45.012,8.68 44.95,9.715 44.553,10.415 C44.094,11.192 43.27,11.752 42.375,11.815 C41.45,11.838 40.633,11.527 40.042,10.788 C39.567,10.134 39.38,9.248 39.606,8.423 C39.902,7.459 40.866,6.619 41.877,6.525 C43.021,6.44 44.094,6.938 44.615,7.957 Z" id="Fill-43"></path>
                <path d="M27.131,16.413 C30.629,7.237 39.505,0.718 49.91,0.718 C60.321,0.718 69.206,7.244 72.7,16.428 L70.232,17.345 C67.114,9.167 59.182,3.369 49.91,3.369 C40.642,3.369 32.73,9.172 29.609,17.343 L27.131,16.413" id="Fill-44"></path>
                <path d="M28.54,29.005 C30.382,39.136 39.248,46.817 49.91,46.817 C60.572,46.817 69.443,39.136 71.286,29.005 L73.891,29.496 C71.818,40.856 61.868,49.467 49.91,49.467 C37.953,49.467 28.007,40.859 25.933,29.501 L28.54,29.005" id="Fill-45"></path>
                <path d="M48.654,31.363 C48.315,32.053 47.45,31.96 46.762,31.914 C46.798,31.706 47.091,31.518 47.301,31.362 L46.876,31.363 C46.485,31.729 46.045,31.987 45.424,31.789 C44.958,32.202 44.102,31.719 43.744,32.318 C43.674,32.521 43.721,32.754 43.869,32.909 C44.149,33.081 44.615,33.034 44.864,33.003 C45.035,33.104 45.199,33.197 45.424,33.159 C45.619,32.855 45.829,33.151 46.047,33.19 C46.272,33.197 46.459,32.917 46.669,33.065 C46.459,33.407 46.218,33.726 46.14,34.123 C46.116,34.403 46.575,34.325 46.451,34.652 C46.521,34.893 46.778,34.808 46.918,34.932 C46.933,35.336 47.384,35.228 47.633,35.336 C47.711,36.037 48.481,35.243 48.629,35.896 C48.792,35.896 48.917,35.787 49.064,35.741 C49.251,35.764 49.391,35.974 49.5,36.114 C49.811,36.363 49.928,35.951 50.153,35.803 L50.714,36.021 L51.087,35.585 C51.523,35.904 51.678,35.266 52.083,35.399 C52.363,35.43 52.331,35.111 52.456,34.963 C52.938,35.033 52.868,34.364 53.327,34.372 C53.358,33.827 52.868,33.508 52.736,33.034 C52.923,32.925 53.07,33.088 53.202,33.19 C53.49,33.283 53.638,33.042 53.856,32.972 C54.253,33.586 54.649,32.738 55.162,32.909 C55.396,32.832 55.614,32.591 55.567,32.318 C55.513,32.194 55.435,32.03 55.287,32.007 C54.517,32.101 53.996,31.587 53.202,31.727 L52.82,31.363 L52.272,31.363 C52.439,31.516 52.597,31.677 52.736,31.852 C52.09,31.797 51.196,32.171 50.807,31.416 L50.824,31.363 L50.433,31.363 C50.274,31.7 50.061,32.007 49.749,32.256 C49.396,32.042 49.169,31.72 49.006,31.363 L48.654,31.363 Z M49.904,32.567 C50.169,33.205 50.293,33.936 50.278,34.652 C49.36,34.263 49.928,33.236 49.811,32.567 L49.904,32.567 Z M49.5,32.567 C49.508,33.236 49.835,34.185 49.095,34.621 L49.002,34.621 C48.963,33.851 49.274,33.197 49.5,32.567 Z M50.185,32.412 C50.449,33.073 50.97,33.633 51.118,34.341 C51.149,34.45 51.017,34.582 50.931,34.559 C50.721,33.82 50.247,33.19 50.122,32.412 L50.185,32.412 Z M45.206,32.381 C45.214,32.528 45.051,32.653 44.926,32.692 C44.654,32.707 44.226,32.824 44.055,32.567 C44.156,32.109 44.779,32.404 45.144,32.318 L45.206,32.381 Z M48.535,34.59 C48.442,34.675 48.325,34.551 48.287,34.465 C48.458,33.68 48.909,33.011 49.22,32.287 C49.158,33.081 48.761,33.82 48.535,34.59 Z M49.002,32.287 C48.784,32.995 48.17,33.547 47.851,34.216 C47.796,34.239 47.765,34.185 47.727,34.154 C48.077,33.501 48.489,32.816 49.002,32.287 Z M47.322,33.874 L47.26,33.874 C47.454,33.236 48.162,32.785 48.629,32.287 C48.45,32.886 47.61,33.26 47.322,33.874 Z M47.447,32.318 C47.268,32.42 47.089,32.878 46.762,32.661 C46.739,32.505 46.902,32.396 47.011,32.318 C47.135,32.272 47.322,32.272 47.447,32.318 Z M46.171,32.318 C46.256,32.45 46.171,32.645 46.015,32.661 C45.79,32.637 45.642,32.715 45.455,32.598 C45.486,32.49 45.549,32.396 45.642,32.318 C45.798,32.272 46.015,32.272 46.171,32.318 Z M55.256,32.381 C55.162,32.894 54.509,32.567 54.136,32.661 C54.159,32.45 54.393,32.357 54.54,32.256 C54.782,32.295 55.124,32.155 55.256,32.381 Z M53.949,32.318 C53.957,32.466 53.794,32.591 53.669,32.63 C53.521,32.692 53.312,32.661 53.234,32.536 C53.195,32.365 53.335,32.303 53.451,32.256 C53.615,32.279 53.825,32.202 53.949,32.318 Z M52.767,32.381 C52.736,32.482 52.72,32.591 52.611,32.661 C52.316,32.777 52.114,32.474 51.896,32.318 C52.121,32.248 52.58,32.171 52.767,32.381 Z M51.771,34.123 C51.756,34.201 51.81,34.302 51.709,34.341 C51.336,33.625 50.527,33.003 50.402,32.194 L51.771,34.123 Z M52.487,33.439 L52.487,33.532 C51.919,33.096 51.437,32.505 50.962,31.976 C51.53,32.381 51.989,32.917 52.487,33.439 Z M50.62,31.976 C51.258,32.598 51.733,33.205 52.269,33.874 C52.277,33.975 52.269,34.069 52.176,34.123 C51.639,33.376 50.993,32.754 50.527,31.976 L50.62,31.976 Z M47.104,33.376 L47.011,33.376 C47.058,32.941 47.61,32.731 47.913,32.412 L48.535,31.976 C48.139,32.505 47.556,32.847 47.104,33.376 Z" id="Fill-46"></path>
                <path d="M50.946,26.363 C50.995,27.002 51.162,27.624 51.429,28.149 L51.305,28.927 C50.892,28.865 51.188,29.363 51.056,29.549 C50.97,29.915 50.752,30.226 50.558,30.545 L50.714,30.638 C50.635,30.885 50.548,31.133 50.433,31.37 L50.824,31.363 L51.056,30.669 C51.281,30.934 51.616,30.918 51.896,31.043 C52.022,31.145 52.149,31.252 52.272,31.365 L52.82,31.363 L51.896,30.483 C51.227,30.024 51.484,29.223 51.647,28.616 C51.663,28.523 51.764,28.367 51.896,28.429 C52.199,28.849 52.028,29.518 52.518,29.892 C52.666,29.977 52.829,30.008 52.954,29.86 C53.156,29.674 53.374,29.915 53.483,30.078 C53.646,30.102 53.747,29.969 53.856,29.86 C54.089,29.666 54.291,29.946 54.509,29.985 C54.626,29.892 54.719,29.736 54.82,29.611 C55.007,29.503 55.131,29.713 55.287,29.767 C55.575,29.853 55.583,29.417 55.785,29.269 C56.011,29.262 56.174,29.409 56.407,29.394 L56.656,28.958 C56.905,28.67 57.216,28.981 57.527,28.927 L57.932,28.336 L58.585,28.305 C58.756,28.118 58.748,27.853 58.741,27.589 C59.067,27.379 59.526,27.488 59.892,27.371 C59.915,27.091 59.752,26.796 59.643,26.531 C59.929,26.388 60.302,26.443 60.62,26.367 L50.946,26.363 Z M46.876,31.363 C47.21,31.055 47.507,30.668 47.851,30.42 C48.38,29.736 47.929,28.951 47.758,28.243 C47.633,28.235 47.602,28.375 47.571,28.46 C47.532,28.966 47.579,29.51 47.166,29.86 C46.793,29.728 46.466,29.806 46.171,30.047 C45.914,29.985 45.798,29.51 45.486,29.674 C45.323,29.798 45.191,30.086 44.958,29.954 C44.841,29.829 44.779,29.658 44.615,29.58 C44.398,29.58 44.141,29.86 43.962,29.58 C43.861,29.433 43.744,29.145 43.495,29.3 C43.355,29.378 43.2,29.409 43.029,29.394 L42.717,28.865 C42.437,28.756 42.002,29.114 41.939,28.678 C41.916,28.546 41.893,28.32 41.691,28.367 C41.348,28.359 40.967,28.53 40.664,28.336 C40.687,28.048 40.858,27.776 40.882,27.527 C40.563,27.449 40.057,27.581 39.824,27.278 C39.863,27.006 39.94,26.749 40.042,26.5 C39.75,26.436 39.428,26.433 39.137,26.357 L48.608,26.363 C48.411,27.251 47.789,28.052 48.287,28.958 L48.349,28.896 C48.738,28.888 48.38,29.37 48.535,29.611 C48.668,29.923 48.901,30.234 48.94,30.545 L48.722,30.545 C48.798,30.816 48.884,31.099 49.006,31.363 L48.654,31.363 C48.656,31.362 48.658,31.359 48.66,31.354 C48.613,30.195 47.835,31.439 47.353,31.323 C47.337,31.336 47.319,31.349 47.301,31.362 L46.876,31.363 Z" id="Fill-47"></path>
                <path d="M39.137,26.363 C39.04,26.332 38.947,26.298 38.859,26.251 C38.781,25.963 39.038,25.746 39.171,25.504 C38.906,25.302 38.548,25.287 38.33,25.038 C38.346,24.625 38.789,24.439 39.015,24.136 C38.844,23.84 38.486,23.723 38.268,23.42 C38.47,23.101 38.805,22.836 39.108,22.642 C38.929,22.284 38.463,22.082 38.424,21.709 C38.688,21.545 38.937,21.335 39.264,21.335 L39.357,21.242 C39.194,20.97 38.898,20.76 38.797,20.464 C39.209,20.293 39.738,20.425 40.135,20.215 C40.018,19.85 39.567,19.624 39.482,19.251 C39.902,19.01 40.368,19.305 40.788,19.251 C40.454,18.924 40.135,18.535 40.135,18.037 C40.407,17.851 40.656,18.107 40.913,18.162 C41.302,18.411 41.706,18.628 42.126,18.815 L42.188,18.753 C41.846,18.193 41.084,17.765 41.162,17.073 C42.002,17.229 42.64,17.835 43.371,18.348 C43.394,18.084 43.106,17.866 43.029,17.602 C42.826,17.065 42.43,16.606 42.5,15.953 C42.842,15.945 43.13,16.342 43.371,16.606 L44.086,17.602 C44.304,17.252 43.962,16.98 43.9,16.668 C43.908,16.116 43.596,15.51 43.931,15.019 C44.436,15.136 44.514,15.758 44.709,16.17 C44.818,16.559 44.856,16.972 45.051,17.322 C45.059,16.559 45.238,15.797 45.082,15.05 C45.144,14.731 45.331,14.389 45.611,14.241 L45.735,14.491 C45.813,14.949 45.844,15.424 45.829,15.922 L45.891,15.984 C46.093,15.906 46.124,15.626 46.358,15.611 C46.918,17.267 46.148,18.916 45.953,20.527 C45.977,21.429 46.225,22.23 46.607,22.984 C46.404,23.746 47.307,24.05 47.384,24.695 C47.548,24.952 47.82,24.735 48.038,24.758 C48.256,24.773 48.372,25.115 48.629,24.945 C49.002,24.711 48.956,24.26 48.909,23.887 C48.598,23.474 47.976,23.412 47.789,22.891 C48.1,22.86 48.434,22.945 48.722,23.047 L48.784,22.984 C48.551,22.635 48.193,22.44 47.851,22.269 C48.007,22.105 48.349,22.183 48.567,22.207 C49.562,22.603 50.846,22.914 51.273,24.105 C51.359,24.361 51.344,24.665 51.523,24.882 C51.849,24.812 52.184,25.03 52.456,24.82 C53.654,23.801 53.312,22.152 53.949,20.9 C53.833,19.119 53.693,17.415 53.794,15.58 C53.825,15.502 53.934,15.502 53.98,15.548 C54.066,15.634 54.089,15.797 54.229,15.797 C54.385,15.361 54.245,14.809 54.603,14.459 C54.953,14.552 55.069,14.965 55.1,15.299 L55.1,16.544 L55.162,16.606 C55.38,16.101 55.513,15.54 56.003,15.175 C56.119,15.097 56.228,15.237 56.22,15.361 C56.151,16.093 56.166,16.871 55.723,17.446 C55.738,17.578 55.723,17.719 55.816,17.82 C56.306,17.213 56.726,16.295 57.558,16.046 C57.838,16.49 57.465,16.98 57.278,17.384 C56.928,17.687 56.835,18.092 56.594,18.442 L56.656,18.504 C57.216,17.82 57.963,17.189 58.803,16.98 C58.966,17.158 58.764,17.33 58.741,17.508 C58.398,17.765 58.445,18.185 58.181,18.473 C57.901,18.831 57.496,19.025 57.247,19.344 C57.59,19.282 57.885,18.909 58.243,18.784 C58.733,18.52 59.231,18.286 59.83,18.286 C59.962,18.644 59.48,18.87 59.239,19.095 C58.982,19.258 58.78,19.461 58.616,19.717 C59.168,19.632 59.783,19.227 60.39,19.468 C60.296,19.865 59.869,20.044 59.674,20.402 C59.822,20.527 60.024,20.402 60.203,20.402 C60.468,20.441 60.755,20.425 60.95,20.651 C60.888,21.024 60.39,21.133 60.234,21.46 C60.545,21.639 60.958,21.592 61.23,21.864 L61.23,22.02 L60.545,22.642 L60.576,22.736 C60.958,22.906 61.339,23.132 61.634,23.451 L61.603,23.607 C61.308,23.801 60.989,23.926 60.701,24.136 C60.833,24.416 61.276,24.532 61.292,24.882 L60.327,25.349 C60.405,25.66 60.81,25.955 60.701,26.345 C60.674,26.353 60.648,26.361 60.62,26.367 L50.946,26.363 C50.905,25.834 50.949,25.292 51.087,24.789 C51.079,24.338 50.923,23.863 50.496,23.669 C50.192,23.809 50.317,24.229 50.153,24.478 C49.866,24.952 49.391,25.24 48.847,25.225 C48.458,25.193 48.745,25.551 48.66,25.753 C48.674,25.96 48.651,26.161 48.608,26.356 L39.137,26.363 Z M49.687,23.171 C49.694,23.233 49.679,23.334 49.593,23.295 L49.5,23.295 L49.5,23.109 C49.562,23.132 49.687,23.054 49.687,23.171 Z M53.825,23.233 C53.996,23.218 53.996,23 54.198,23.047 C54.354,23.373 53.685,23.498 53.98,23.731 C54.152,23.669 54.354,23.474 54.54,23.638 C54.533,23.894 54.198,23.894 54.136,24.105 C54.408,24.12 54.665,24.221 54.82,24.447 C54.867,24.571 54.727,24.618 54.634,24.602 C54.4,24.649 54.159,24.509 53.98,24.602 C54.12,24.844 54.486,24.882 54.447,25.225 C54.128,25.349 53.926,25.014 53.638,24.976 C53.56,25.201 53.934,25.318 53.887,25.567 C53.599,25.66 53.389,25.372 53.171,25.256 C53.117,25.403 53.218,25.559 53.296,25.691 C53.07,25.8 52.845,25.637 52.736,25.442 C52.424,24.999 53.008,24.695 53.14,24.322 C53.553,23.918 53.545,23.334 53.794,22.86 C53.848,23 53.677,23.124 53.825,23.233 Z M46.731,24.198 C47.042,24.4 47.128,24.75 47.229,25.069 C47.252,25.357 47.096,25.606 46.855,25.753 C46.723,25.761 46.63,25.668 46.638,25.536 C46.583,25.435 46.754,25.349 46.607,25.287 C46.443,25.396 46.296,25.621 46.078,25.504 C46,25.287 46.202,25.108 46.264,24.913 C46.015,24.882 45.836,25.295 45.517,25.1 C45.448,24.836 45.673,24.695 45.798,24.509 C45.549,24.369 45.362,24.649 45.113,24.509 C45.129,24.283 45.51,24.206 45.704,24.042 C45.533,23.926 45.261,23.77 45.238,23.513 C45.525,23.358 45.72,23.809 45.984,23.607 C45.992,23.373 45.712,23.171 45.86,22.953 C45.969,23 46.047,23.116 46.14,23.202 C46.334,23.148 46.163,22.953 46.171,22.829 C46.451,23.218 46.218,23.879 46.731,24.198 Z M49.095,22.984 C49.026,23.14 49.135,23.428 48.878,23.451 C48.66,23.435 48.489,23.319 48.318,23.202 C48.528,23.101 48.839,23.412 49.033,23.171 C49.072,22.852 48.753,22.681 48.567,22.455 C48.878,22.44 49.111,22.673 49.095,22.984 Z M55.069,22.175 C55.085,22.471 54.743,22.331 54.603,22.455 C54.517,22.277 54.813,22.175 54.945,22.113 C54.991,22.113 55.077,22.105 55.069,22.175 Z M55.256,21.709 C55.116,21.927 54.828,21.919 54.603,21.989 C54.681,21.779 54.999,21.561 55.256,21.491 C55.396,21.545 55.256,21.639 55.256,21.709 Z M55.225,20.9 C55.162,21.203 54.782,21.413 54.54,21.616 C54.439,21.273 54.851,20.985 55.1,20.713 C55.202,20.697 55.248,20.814 55.225,20.9 Z M45.424,20.806 C45.3,21.421 45.199,22.004 45.331,22.642 C45.121,22.65 44.965,22.525 44.802,22.424 C44.724,22.315 44.693,22.191 44.709,22.051 C44.864,21.981 45.004,22.315 45.175,22.113 C45.136,21.81 44.748,21.709 44.646,21.429 C44.872,21.273 45.09,21.755 45.238,21.429 C45.144,21.164 44.623,21.063 44.771,20.713 L45.082,20.869 C45.098,20.612 44.849,20.425 44.926,20.184 C45.136,20.316 45.261,20.596 45.424,20.806 Z M55.038,20.153 C54.999,20.449 54.743,20.728 54.54,20.993 L54.509,20.993 C54.533,20.69 54.797,20.355 55.038,20.153 Z M45.517,20.464 C45.346,20.207 45.059,19.826 45.269,19.5 C45.463,19.749 45.432,20.145 45.517,20.464 Z M54.447,19.437 C54.377,19.694 54.19,19.982 54.323,20.246 C54.494,20.137 54.478,19.842 54.696,19.78 C54.665,20.114 54.54,20.48 54.323,20.775 C54.089,20.301 54.105,19.655 54.198,19.126 C54.377,19.134 54.361,19.336 54.447,19.437 Z M45.86,18.753 C45.875,19.22 45.984,19.686 45.766,20.091 C45.836,19.647 45.121,19.025 45.86,18.753 Z" id="Fill-48"></path>
                <polygon id="Fill-49" points="25.474 25.561 28.107 25.561 28.107 24.897 25.474 24.897"></polygon>
                <polyline id="Fill-50" points="25.506 24.419 25.533 23.76 28.151 23.863 28.125 24.523 25.506 24.419"></polyline>
                <polyline id="Fill-51" points="25.582 23.322 25.635 22.666 28.238 22.873 28.186 23.53 25.582 23.322"></polyline>
                <polyline id="Fill-52" points="25.703 22.226 25.781 21.573 28.37 21.884 28.292 22.537 25.703 22.226"></polyline>
                <polyline id="Fill-53" points="25.867 21.129 25.972 20.48 28.546 20.895 28.442 21.544 25.867 21.129"></polyline>
                <polyline id="Fill-54" points="26.032 20.033 26.163 19.387 28.722 19.906 28.592 20.551 26.032 20.033"></polyline>
                <polyline id="Fill-55" points="26.285 18.958 26.442 18.316 28.987 18.938 28.83 19.58 26.285 18.958"></polyline>
                <polyline id="Fill-56" points="26.765 17.245 29.296 17.971 29.113 18.609 26.582 17.883 26.765 17.245"></polyline>
                <polygon id="Fill-57" points="71.641 25.561 74.274 25.561 74.274 24.897 71.641 24.897"></polygon>
                <polyline id="Fill-58" points="74.242 24.419 74.216 23.76 71.598 23.863 71.624 24.523 74.242 24.419"></polyline>
                <polyline id="Fill-59" points="74.166 23.322 74.114 22.666 71.51 22.873 71.562 23.53 74.166 23.322"></polyline>
                <polyline id="Fill-60" points="74.046 22.226 73.967 21.573 71.378 21.884 71.457 22.537 74.046 22.226"></polyline>
                <polyline id="Fill-61" points="73.881 21.129 73.777 20.48 71.202 20.895 71.307 21.544 73.881 21.129"></polyline>
                <polyline id="Fill-62" points="73.716 20.033 73.586 19.387 71.026 19.906 71.157 20.551 73.716 20.033"></polyline>
                <polyline id="Fill-63" points="73.464 18.958 73.307 18.316 70.761 18.938 70.918 19.58 73.464 18.958"></polyline>
                <polyline id="Fill-64" points="72.983 17.245 70.453 17.971 70.636 18.609 73.166 17.883 72.983 17.245"></polyline>
            </g>
        </g>
    </g>
</svg>