<?xml version="1.0" standalone="no"?>
<!DOCTYPE svg PUBLIC "-//W3C//DTD SVG 20010904//EN"
 "http://www.w3.org/TR/2001/REC-SVG-20010904/DTD/svg10.dtd">
<svg version="1.0" xmlns="http://www.w3.org/2000/svg"
 width="960.000000pt" height="960.000000pt" viewBox="0 0 960.000000 960.000000"
 preserveAspectRatio="xMidYMid meet">
<metadata>
Created by potrace 1.11, written by Peter Selinger 2001-2013
</metadata>
<g transform="translate(0.000000,960.000000) scale(0.100000,-0.100000)"
fill="#000000" stroke="none">
<path d="M1010 4800 l0 -2481 993 4 c545 2 1001 6 1012 9 11 3 49 9 85 13 142
15 460 97 585 150 501 214 809 457 1143 900 4 6 27 42 51 80 24 39 54 86 67
105 40 63 134 267 174 380 41 114 95 305 106 374 3 21 7 47 9 56 2 10 6 40 10
67 4 26 9 59 12 73 2 14 6 115 8 225 4 231 -6 343 -47 540 -19 92 -60 249 -75
285 -3 8 -7 20 -8 25 -8 33 -96 235 -141 324 -146 283 -384 576 -624 770 -52
42 -97 78 -100 81 -11 11 -129 90 -195 130 -228 140 -581 279 -805 316 -14 2
-45 8 -70 14 -25 5 -67 12 -95 15 -27 3 -66 9 -85 12 -19 4 -479 8 -1022 10
l-988 4 0 -2481z m1946 1447 c12 -3 39 -8 60 -11 109 -18 230 -59 359 -122
520 -255 823 -840 761 -1474 -16 -166 -38 -260 -100 -423 -158 -414 -511 -727
-941 -836 -130 -33 -222 -39 -602 -40 l-363 -1 -1 27 c0 33 0 2850 0 2876 1
18 18 19 404 14 221 -2 412 -7 423 -10z"/>
<path d="M5035 7078 c693 -1040 1152 -1734 1149 -1736 -1 -2 -123 -4 -271 -5
l-268 -2 0 -1507 -1 -1508 561 0 561 0 0 970 -1 970 40 1 c22 0 338 1 702 1
l662 0 -323 482 c-611 911 -956 1426 -956 1429 0 1 381 3 848 3 l847 0 3 552
2 552 -1845 0 -1845 0 135 -202z"/>
</g>
</svg>
